<svg xmlns="http://www.w3.org/2000/svg" width="200.4" height="35" viewBox="0 0 200.4 35"><rect class="svg__rect" x="0" y="0" width="113.25" height="35" fill="#31C4F3"/><rect class="svg__rect" x="111.25" y="0" width="89.15" height="35" fill="#389AD5"/><path class="svg__text" d="M16.67 22L14.22 22L14.22 13.47L16.74 13.47Q17.87 13.47 18.74 13.97Q19.62 14.48 20.10 15.40Q20.58 16.33 20.58 17.52L20.58 17.52L20.58 17.95Q20.58 19.16 20.10 20.08Q19.61 21.00 18.72 21.50Q17.83 22 16.67 22L16.67 22ZM15.70 14.66L15.70 20.82L16.67 20.82Q17.83 20.82 18.46 20.09Q19.08 19.36 19.09 17.99L19.09 17.99L19.09 17.52Q19.09 16.13 18.49 15.40Q17.89 14.66 16.74 14.66L16.74 14.66L15.70 14.66ZM24.78 18.00L24.78 18.00L24.78 17.52Q24.78 16.28 25.22 15.32Q25.66 14.37 26.47 13.86Q27.27 13.35 28.31 13.35Q29.36 13.35 30.16 13.85Q30.97 14.35 31.41 15.29Q31.85 16.23 31.85 17.48L31.85 17.48L31.85 17.96Q31.85 19.21 31.42 20.16Q30.99 21.10 30.18 21.61Q29.38 22.12 28.33 22.12L28.33 22.12Q27.29 22.12 26.48 21.61Q25.67 21.10 25.22 20.17Q24.78 19.23 24.78 18.00ZM26.26 17.46L26.26 17.96Q26.26 19.36 26.81 20.13Q27.35 20.90 28.33 20.90L28.33 20.90Q29.31 20.90 29.84 20.15Q30.37 19.40 30.37 17.96L30.37 17.96L30.37 17.51Q30.37 16.09 29.84 15.34Q29.30 14.58 28.31 14.58L28.31 14.58Q27.35 14.58 26.81 15.33Q26.27 16.09 26.26 17.46L26.26 17.46ZM37.70 22L35.73 13.47L37.20 13.47L38.53 19.88L40.16 13.47L41.40 13.47L43.01 19.89L44.32 13.47L45.79 13.47L43.82 22L42.41 22L40.78 15.77L39.13 22L37.70 22ZM51.35 22L49.87 22L49.87 13.47L51.35 13.47L55.16 19.54L55.16 13.47L56.63 13.47L56.63 22L55.15 22L51.35 15.95L51.35 22ZM66.73 22L61.37 22L61.37 13.47L62.86 13.47L62.86 20.82L66.73 20.82L66.73 22ZM70.58 18.00L70.58 18.00L70.58 17.52Q70.58 16.28 71.03 15.32Q71.47 14.37 72.27 13.86Q73.08 13.35 74.12 13.35Q75.17 13.35 75.97 13.85Q76.78 14.35 77.22 15.29Q77.66 16.23 77.66 17.48L77.66 17.48L77.66 17.96Q77.66 19.21 77.23 20.16Q76.80 21.10 75.99 21.61Q75.18 22.12 74.14 22.12L74.14 22.12Q73.10 22.12 72.29 21.61Q71.47 21.10 71.03 20.17Q70.59 19.23 70.58 18.00ZM72.07 17.46L72.07 17.96Q72.07 19.36 72.61 20.13Q73.16 20.90 74.14 20.90L74.14 20.90Q75.12 20.90 75.65 20.15Q76.18 19.40 76.18 17.96L76.18 17.96L76.18 17.51Q76.18 16.09 75.64 15.34Q75.11 14.58 74.12 14.58L74.12 14.58Q73.16 14.58 72.62 15.33Q72.08 16.09 72.07 17.46L72.07 17.46ZM82.91 22L81.37 22L84.59 13.47L85.92 13.47L89.15 22L87.60 22L86.90 20.01L83.60 20.01L82.91 22ZM85.25 15.28L84.01 18.82L86.49 18.82L85.25 15.28ZM95.56 22L93.10 22L93.10 13.47L95.62 13.47Q96.75 13.47 97.63 13.97Q98.50 14.48 98.98 15.40Q99.47 16.33 99.47 17.52L99.47 17.52L99.47 17.95Q99.47 19.16 98.98 20.08Q98.50 21.00 97.60 21.50Q96.71 22 95.56 22L95.56 22ZM94.58 14.66L94.58 20.82L95.55 20.82Q96.72 20.82 97.34 20.09Q97.97 19.36 97.98 17.99L97.98 17.99L97.98 17.52Q97.98 16.13 97.37 15.40Q96.77 14.66 95.62 14.66L95.62 14.66L94.58 14.66Z" fill="#FFFFFF"/><path class="svg__text" d="M124.85 21.24L124.85 21.24L125.63 19.49Q126.19 19.86 126.94 20.09Q127.68 20.32 128.40 20.32L128.40 20.32Q129.77 20.32 129.77 19.64L129.77 19.64Q129.77 19.28 129.38 19.11Q128.99 18.93 128.13 18.74L128.13 18.74Q127.18 18.53 126.54 18.30Q125.91 18.06 125.45 17.55Q125.00 17.03 125.00 16.16L125.00 16.16Q125.00 15.39 125.42 14.77Q125.84 14.15 126.67 13.79Q127.51 13.43 128.71 13.43L128.71 13.43Q129.54 13.43 130.35 13.62Q131.15 13.80 131.77 14.17L131.77 14.17L131.03 15.93Q129.83 15.28 128.70 15.28L128.70 15.28Q127.99 15.28 127.67 15.49Q127.35 15.70 127.35 16.04L127.35 16.04Q127.35 16.37 127.73 16.54Q128.12 16.71 128.97 16.89L128.97 16.89Q129.93 17.10 130.56 17.33Q131.19 17.56 131.65 18.07Q132.11 18.58 132.11 19.46L132.11 19.46Q132.11 20.21 131.69 20.83Q131.27 21.44 130.43 21.80Q129.59 22.17 128.39 22.17L128.39 22.17Q127.37 22.17 126.41 21.92Q125.45 21.67 124.85 21.24ZM136.26 17.80L136.26 17.80Q136.26 16.54 136.86 15.54Q137.46 14.55 138.51 13.99Q139.56 13.43 140.88 13.43L140.88 13.43Q142.03 13.43 142.95 13.84Q143.88 14.25 144.49 15.02L144.49 15.02L142.98 16.39Q142.17 15.40 141.00 15.40L141.00 15.40Q140.31 15.40 139.78 15.70Q139.25 16 138.95 16.54Q138.66 17.09 138.66 17.80L138.66 17.80Q138.66 18.51 138.95 19.05Q139.25 19.60 139.78 19.90Q140.31 20.20 141.00 20.20L141.00 20.20Q142.17 20.20 142.98 19.22L142.98 19.22L144.49 20.58Q143.88 21.35 142.96 21.76Q142.03 22.17 140.88 22.17L140.88 22.17Q139.56 22.17 138.51 21.61Q137.46 21.05 136.86 20.05Q136.26 19.06 136.26 17.80ZM151.41 22L149.03 22L149.03 13.60L152.87 13.60Q154.01 13.60 154.85 13.98Q155.69 14.35 156.15 15.06Q156.60 15.76 156.60 16.71L156.60 16.71Q156.60 17.62 156.18 18.30Q155.75 18.98 154.96 19.36L154.96 19.36L156.77 22L154.22 22L152.70 19.77L151.41 19.77L151.41 22ZM151.41 15.47L151.41 17.93L152.72 17.93Q153.46 17.93 153.83 17.61Q154.20 17.29 154.20 16.71L154.20 16.71Q154.20 16.12 153.83 15.79Q153.46 15.47 152.72 15.47L152.72 15.47L151.41 15.47ZM163.77 22L161.39 22L161.39 13.60L163.77 13.60L163.77 22ZM171.32 22L168.94 22L168.94 13.60L172.79 13.60Q173.92 13.60 174.77 13.98Q175.61 14.35 176.06 15.06Q176.52 15.76 176.52 16.71L176.52 16.71Q176.52 17.66 176.06 18.35Q175.61 19.05 174.77 19.42Q173.92 19.80 172.79 19.80L172.79 19.80L171.32 19.80L171.32 22ZM171.32 15.47L171.32 17.93L172.64 17.93Q173.37 17.93 173.75 17.61Q174.12 17.29 174.12 16.71L174.12 16.71Q174.12 16.12 173.75 15.80Q173.37 15.47 172.64 15.47L172.64 15.47L171.32 15.47ZM183.06 15.48L180.48 15.48L180.48 13.60L188.00 13.60L188.00 15.48L185.44 15.48L185.44 22L183.06 22L183.06 15.48Z" fill="#FFFFFF" x="124.25"/></svg>