<svg xmlns="http://www.w3.org/2000/svg" width="133.62" height="35" viewBox="0 0 133.62 35"><rect class="svg__rect" x="0" y="0" width="133.62" height="35" fill="#31C4F3"/><rect class="svg__rect" x="133.62" y="0" width="0" height="35" fill="#389AD5"/><path class="svg__text" d="M13.61 19.57L13.61 19.57L15.09 19.57Q15.09 20.25 15.43 20.59Q15.76 20.93 16.40 20.93L16.40 20.93Q17.00 20.93 17.35 20.54Q17.71 20.14 17.71 19.45L17.71 19.45L17.71 13.47L19.19 13.47L19.19 19.45Q19.19 20.68 18.42 21.40Q17.66 22.12 16.40 22.12L16.40 22.12Q15.07 22.12 14.34 21.44Q13.61 20.77 13.61 19.57ZM23.73 19.16L23.73 19.16L23.73 13.47L25.21 13.47L25.21 19.18Q25.21 20.03 25.64 20.48Q26.08 20.93 26.92 20.93L26.92 20.93Q28.63 20.93 28.63 19.13L28.63 19.13L28.63 13.47L30.11 13.47L30.11 19.17Q30.11 20.53 29.24 21.32Q28.37 22.12 26.92 22.12L26.92 22.12Q25.46 22.12 24.59 21.33Q23.73 20.55 23.73 19.16ZM34.24 19.42L34.24 19.42L35.73 19.42Q35.73 20.15 36.21 20.55Q36.69 20.95 37.58 20.95L37.58 20.95Q38.36 20.95 38.75 20.63Q39.14 20.32 39.14 19.80L39.14 19.80Q39.14 19.24 38.74 18.94Q38.35 18.63 37.31 18.32Q36.28 18.01 35.67 17.63L35.67 17.63Q34.51 16.90 34.51 15.72L34.51 15.72Q34.51 14.69 35.35 14.02Q36.19 13.35 37.53 13.35L37.53 13.35Q38.42 13.35 39.12 13.68Q39.82 14.01 40.22 14.61Q40.61 15.22 40.61 15.96L40.61 15.96L39.14 15.96Q39.14 15.29 38.72 14.91Q38.30 14.54 37.52 14.54L37.52 14.54Q36.79 14.54 36.39 14.85Q35.99 15.16 35.99 15.71L35.99 15.71Q35.99 16.18 36.42 16.50Q36.86 16.81 37.85 17.10Q38.85 17.40 39.45 17.78Q40.06 18.16 40.34 18.65Q40.62 19.13 40.62 19.79L40.62 19.79Q40.62 20.86 39.80 21.49Q38.98 22.12 37.58 22.12L37.58 22.12Q36.66 22.12 35.88 21.77Q35.11 21.43 34.68 20.83Q34.24 20.22 34.24 19.42ZM46.59 14.66L43.95 14.66L43.95 13.47L50.72 13.47L50.72 14.66L48.06 14.66L48.06 22L46.59 22L46.59 14.66ZM57.10 18.95L54.03 18.95L54.03 17.80L57.10 17.80L57.10 18.95ZM62.97 22L61.49 22L61.49 13.47L62.97 13.47L62.97 22ZM69.26 22L67.78 22L67.78 13.47L69.26 13.47L73.07 19.54L73.07 13.47L74.55 13.47L74.55 22L73.06 22L69.26 15.95L69.26 22ZM81.91 18.95L78.83 18.95L78.83 17.80L81.91 17.80L81.91 18.95ZM87.89 14.66L85.26 14.66L85.26 13.47L92.02 13.47L92.02 14.66L89.36 14.66L89.36 22L87.89 22L87.89 14.66ZM97.34 22L95.87 22L95.87 13.47L97.34 13.47L97.34 22ZM103.63 22L102.15 22L102.15 13.47L104.08 13.47L106.54 20.01L108.99 13.47L110.91 13.47L110.91 22L109.43 22L109.43 19.19L109.58 15.43L107.06 22L106.00 22L103.48 15.43L103.63 19.19L103.63 22ZM121.23 22L115.65 22L115.65 13.47L121.19 13.47L121.19 14.66L117.13 14.66L117.13 17.02L120.64 17.02L120.64 18.19L117.13 18.19L117.13 20.82L121.23 20.82L121.23 22Z" fill="#FFFFFF"/><path class="svg__text" d="" fill="#FFFFFF" x="146.62"/></svg>