<svg xmlns="http://www.w3.org/2000/svg" width="61.641" height="41.055" viewBox="0 0 61.641 41.055">
  <path id="Path_69" data-name="Path 69" d="M7.07-4.258H9.121q2.48,0,2.48,1.738a2.2,2.2,0,0,1-.869,1.855A3.927,3.927,0,0,1,8.3,0H4.785A3.516,3.516,0,0,1,2.5-.684,2.245,2.245,0,0,1,1.66-2.52a6.374,6.374,0,0,1,.566-2.012l7.891-19.414.215-.527A3.014,3.014,0,0,1,13.2-26.66a1.954,1.954,0,0,1,1.4.547,1.742,1.742,0,0,1,.576,1.309,3.673,3.673,0,0,1-.293,1.328l-.215.527Zm18.73,0h2.148q2.461,0,2.461,1.719a2.219,2.219,0,0,1-.879,1.865A3.893,3.893,0,0,1,27.109,0h-2.5a2.281,2.281,0,0,1-2.285-1.309A4.345,4.345,0,0,1,19.492,0H17.266A4.35,4.35,0,0,1,13.8-1.533,5.94,5.94,0,0,1,12.48-5.547a9.914,9.914,0,0,1,2.588-6.709,7.645,7.645,0,0,1,5.85-2.959,4.065,4.065,0,0,1,3.652,1.738,2.958,2.958,0,0,1,2.559-1.465,2,2,0,0,1,1.436.547,1.785,1.785,0,0,1,.576,1.348,3.556,3.556,0,0,1-.312,1.309l-.215.527Zm-7.09.1H19.2a2.068,2.068,0,0,0,2.129-1.309L22.7-8.848a3.05,3.05,0,0,0,.273-1.113,1.133,1.133,0,0,0-.518-.918,2,2,0,0,0-1.24-.391,3.7,3.7,0,0,0-2.773,1.66A5.4,5.4,0,0,0,17.09-6.172Q17.09-4.16,18.711-4.16Zm19.727-.1h4.922q2.461,0,2.461,1.738a2.2,2.2,0,0,1-.869,1.855A3.927,3.927,0,0,1,42.52,0h-9.1a2.874,2.874,0,0,1-1.924-.605,2.041,2.041,0,0,1-.713-1.641A3.467,3.467,0,0,1,32.09-4.512l6.387-6.152-2.168.078H35.82q-2.129,0-2.129-1.758a2.382,2.382,0,0,1,.84-1.846,2.964,2.964,0,0,1,2.051-.752h6.563q2.715,0,2.715,2.3a3.454,3.454,0,0,1-1.23,2.4ZM57.91.8h2.266q2.48,0,2.48,1.738a2.2,2.2,0,0,1-.869,1.855,3.927,3.927,0,0,1-2.432.664H56.191a31.358,31.358,0,0,1-2.051,4.453q-2.578,4.883-7.5,4.883a7.123,7.123,0,0,1-5.02-1.875A6.071,6.071,0,0,1,39.59,7.871a6.412,6.412,0,0,1,1.1-3.6,6.937,6.937,0,0,1,2.9-2.51A15.147,15.147,0,0,1,49.707.8h3.184l.566-1.406A6.932,6.932,0,0,1,50.8,0a5.175,5.175,0,0,1-3.389-1.064,3.406,3.406,0,0,1-1.3-2.764,9.3,9.3,0,0,1,.84-3.105l2.129-5.254.215-.547a3.085,3.085,0,0,1,2.91-2.207,2,2,0,0,1,1.436.547,1.83,1.83,0,0,1,.576,1.387,5.775,5.775,0,0,1-.508,1.836L51.8-6.5a6.58,6.58,0,0,0-.469,1.465q-.059.957,1.211.957a3.732,3.732,0,0,0,1.836-.527A2.489,2.489,0,0,0,55.566-5.8l2.617-6.387.2-.547a3.062,3.062,0,0,1,2.91-2.207,1.985,1.985,0,0,1,1.436.557,1.838,1.838,0,0,1,.576,1.377,3.636,3.636,0,0,1-.293,1.309l-.234.527ZM51.523,5.059H48.789q-4.492,0-4.492,2.813a2.146,2.146,0,0,0,.615,1.6,2.251,2.251,0,0,0,1.65.605,3.465,3.465,0,0,0,2.529-1.113A14.852,14.852,0,0,0,51.523,5.059Z" transform="translate(-1.66 26.66)" fill="#0e0e3d"/>
</svg>
